<svg width="29" height="31" viewBox="0 0 29 31" fill="none" xmlns="http://www.w3.org/2000/svg">
<path fill-rule="evenodd" clip-rule="evenodd" d="M23.9488 20.8006C23.7438 19.7451 23.1966 18.7879 22.3894 18.0775C22.1093 17.806 21.7917 17.5779 21.4466 17.3974C21.2705 17.2949 21.0856 17.2083 20.895 17.1375C20.4027 16.9267 19.867 16.8387 19.3343 16.8805C19.7501 16.7304 20.1933 16.6741 20.6337 16.716C21.0091 16.7694 21.3773 16.856 21.7368 16.9758C22.0256 17.1361 22.3245 17.2978 22.6147 17.4624C23.2586 15.184 23.133 12.7569 22.258 10.5565C21.552 8.68813 20.4041 7.02048 18.9112 5.69358C17.3966 4.27716 15.5167 3.31123 13.4838 2.9055C12.3012 2.67593 11.0855 2.68748 9.90734 2.93871C8.90963 3.20004 7.97258 3.65053 7.14526 4.26561C6.37857 4.8807 5.73028 5.62717 5.22782 6.47182C5.0791 6.67685 4.94915 6.89343 4.83797 7.12012C4.73834 7.36557 4.62574 7.6009 4.51312 7.83336C3.89226 9.51112 3.69444 11.3145 3.93556 13.0861C4.0785 14.1921 4.37305 15.2721 4.81343 16.2958C5.05022 16.7506 5.26536 17.2271 5.52669 17.6559C5.78659 18.0717 6.06814 18.4731 6.37279 18.8572C7.02108 19.5791 7.75166 20.2216 8.55011 20.7703C10.3795 22.0091 12.5178 22.7166 14.7255 22.8119C14.7269 22.656 14.6937 22.5 14.6273 22.3585C14.5883 22.2026 14.5739 22.0236 14.5291 21.8719C14.4872 21.5052 14.4872 21.137 14.5291 20.7703C14.6056 20.8266 14.6634 20.906 14.6923 20.997C14.7298 21.0735 14.7861 21.1414 14.8554 21.1904C14.9406 21.3493 15.0373 21.5009 15.1442 21.6453C15.3593 21.9254 15.612 22.1751 15.8921 22.3903C16.4509 22.848 17.0746 23.2205 17.7446 23.4919C18.4997 23.8096 19.301 24.0045 20.1183 24.0695C20.9846 24.1864 21.8234 24.3337 22.619 24.5229C23.3438 24.7322 24.0427 25.0253 24.6996 25.3978C25.0144 25.5711 25.319 25.7646 25.6092 25.9754C25.7623 26.0678 25.9038 26.1761 26.0323 26.3002C26.2026 26.3681 26.2777 26.5298 26.4539 26.589C26.9693 27.0597 27.4487 27.5694 27.8862 28.1137C28.0941 28.4126 28.2789 28.7274 28.4377 29.0551C28.5561 29.1851 28.5908 29.3987 28.6976 29.5417C28.7424 29.6254 28.7684 29.7193 28.7727 29.8146C28.7785 29.9099 28.7641 30.0037 28.7294 30.0932C28.4883 30.1279 28.5374 29.8738 28.4406 29.7684C28.3497 29.6485 28.2731 29.5171 28.2125 29.38C27.8313 28.98 27.4906 28.5425 27.0747 28.1801C26.6733 27.8033 26.2388 27.4654 25.7753 27.1694C24.8093 26.4952 23.7308 26.0014 22.5901 25.7097C21.2473 25.3415 19.8512 25.2101 18.4636 25.3199C17.811 25.3921 17.167 25.5335 16.5447 25.7415C15.8907 25.8858 15.2279 25.9941 14.5623 26.0663C11.9504 26.1992 9.34423 25.7112 6.95755 24.6398C5.92519 24.1821 4.96214 23.5829 4.09727 22.8567C3.66267 22.5159 3.25984 22.1362 2.89599 21.7218C2.52347 21.3161 2.19573 20.8699 1.91995 20.392C1.60519 19.9141 1.32365 19.416 1.07531 18.9005C0.841406 18.3417 0.646466 17.7671 0.49053 17.1823C0.285503 16.5513 0.155572 15.8987 0.100706 15.2374C0.0891552 15.0425 0.00106808 14.6671 0.00251194 14.3625C0.0169505 14.3307 0.0285161 14.2975 0.0357353 14.2643C-0.0119118 13.9524 -0.0119118 13.6362 0.0357353 13.3243C0.0400669 12.6371 0.116588 11.9527 0.262417 11.2813C0.377925 10.6633 0.541076 10.0569 0.750435 9.46492C0.943911 8.88738 1.19947 8.35894 1.43193 7.81316C1.58931 7.57926 1.70771 7.30925 1.85498 7.06812C1.97915 6.81256 2.16541 6.62053 2.27803 6.3462C2.37188 6.24368 2.45852 6.13684 2.53793 6.02278C2.58847 5.87839 2.72274 5.81776 2.76461 5.66615C2.87146 5.57519 2.95952 5.46545 3.0245 5.34128C3.13279 5.2532 3.22087 5.14203 3.2844 5.01786C3.6728 4.63668 4.01931 4.21508 4.42215 3.85123C4.82498 3.48737 5.27546 3.14519 5.69129 2.78134C5.95407 2.65572 6.14467 2.45647 6.40456 2.32652C6.60237 2.14604 6.89113 2.05508 7.08749 1.87316C7.60294 1.59594 8.13285 1.3476 8.67573 1.12669C9.2244 0.881232 9.78895 0.67619 10.3665 0.511591C11.6891 0.14774 13.0578 -0.0168449 14.428 0.0250268C14.4843 0.0250268 14.5118 -0.0312835 14.5248 0.0250268C16.9952 0.0625669 19.4021 0.814814 21.4553 2.1908C23.2673 3.39642 24.7256 5.06406 25.68 7.02192C26.8019 9.37107 27.1773 12.0076 26.7528 14.5762C26.4741 16.3319 25.8316 18.0111 24.8671 19.504C24.7386 19.7452 24.5855 19.9747 24.4123 20.1855C24.3531 20.3039 24.2766 20.4122 24.1856 20.5089C24.1466 20.5667 24.1019 20.6201 24.0557 20.6721C24.0513 20.688 24.0426 20.701 24.0311 20.7125C24.0195 20.7241 24.0065 20.7328 23.9907 20.7371C23.9907 20.8252 23.9589 20.8367 23.9488 20.8006ZM23.1706 21.6453C22.85 21.4099 22.6291 21.062 22.5511 20.6721C22.5078 20.5234 22.5078 20.3674 22.5511 20.2187C22.5714 20.2043 22.593 20.1927 22.6161 20.1855C22.671 20.1711 22.7302 20.1682 22.7865 20.1798C22.8428 20.1913 22.8948 20.2158 22.941 20.2505C23.1316 20.4873 23.2644 20.7645 23.3323 21.0605C23.3655 21.163 23.3684 21.2727 23.3395 21.3767C23.3106 21.4807 23.2514 21.5745 23.1706 21.6453ZM20.3103 21.0937C20.3103 21.0576 20.3421 21.0749 20.3421 21.0937C20.6005 21.1197 20.8373 21.2482 21.0004 21.4474C21.165 21.6481 21.2445 21.9051 21.2199 22.1636C21.2069 22.3123 21.1463 22.4524 21.0466 22.5636C20.947 22.6747 20.8128 22.7498 20.6669 22.7787C20.4951 22.7859 20.3247 22.7484 20.1717 22.669C20.0186 22.591 19.8887 22.4755 19.7948 22.3311C19.6995 22.1881 19.6432 22.0235 19.6302 21.8517C19.6187 21.6799 19.6505 21.5095 19.7241 21.3536C19.792 21.2641 19.8815 21.1933 19.984 21.1486C20.0865 21.1024 20.1991 21.0836 20.3103 21.0937Z" fill="#F78300"/>
</svg>
