<svg width="30" height="31" viewBox="0 0 30 31" fill="none" xmlns="http://www.w3.org/2000/svg">
<path fill-rule="evenodd" clip-rule="evenodd" d="M14.982 0.0693399C17.2463 0.0676762 19.4806 0.58841 21.5119 1.58994C21.8214 1.73801 22.1308 1.90106 22.4402 2.07907L21.0694 3.31518L19.0081 1.17237L15.526 4.29009L13.4597 2.02417L6.97139 7.89362L11.1306 12.497L9.49684 13.9394L13.5895 18.5495L11.9657 19.9886L17.8136 26.5318L21.2856 23.3192L24.2803 26.7597C23.6597 27.2455 23.0042 27.6831 22.3171 28.0707C20.0845 29.3534 17.5557 30.0272 14.982 30.0272C11.0091 30.0272 7.1993 28.4484 4.39101 25.6401C1.58106 22.8301 0.00390625 19.0203 0.00390625 15.0474C0.00390625 11.0762 1.58106 7.26642 4.39101 4.45647C7.1993 1.64818 11.0091 0.0693399 14.982 0.0693399ZM12.2652 14.1025L15.8088 10.8949L19.0014 14.4568L15.4578 17.6627L12.2652 14.1025ZM14.7857 20.2581L18.3293 17.0488L21.5219 20.6108L17.9766 23.82L14.7857 20.2581ZM9.72975 8.02006L13.2734 4.81248L16.4643 8.37442L12.9207 11.5803L9.72975 8.02006ZM16.2331 6.29315L18.895 3.88915L21.2873 6.55935L18.6254 8.9667L16.2314 6.29315H16.2331ZM20.9562 17.31L23.6181 14.9044L26.0105 17.5762L23.3486 19.9802L20.9562 17.31ZM23.2854 22.7053L25.9473 20.2997L28.3413 22.9715L25.6794 25.3755L23.2854 22.7053ZM24.3568 10.3409L26.1286 8.73711L27.7241 10.5172L25.9523 12.1193L24.3568 10.3409ZM22.0925 5.04707L23.8644 3.44495L25.4598 5.22507L23.688 6.82887L22.0925 5.04707ZM26.6211 15.6297L28.3946 14.0259L30 15.8077L28.2282 17.4115L26.6327 15.6297H26.6211ZM18.6753 11.6652L21.3372 9.2595L23.7313 11.9297L21.0694 14.337L18.6753 11.6652Z" fill="#0083DE"/>
</svg>
